# AST/ASF file generated using VICON BodyLanguage
# -----------------------------------------------
:version 1.10
:name VICON
:units
  mass 1.0
  length 0.45
  angle deg
:documentation
   .ast/.asf automatically generated from VICON data using
   VICON BodyBuilder and BodyLanguage model FoxedUp or BRILLIANT.MOD
:root
   order TX TY TZ RX RY RZ
   axis XYZ
   position 0 0 0  
   orientation 0 0 0 
:bonedata
  begin
     id 1 
     name lhipjoint
     direction 0.623529 -0.717805 0.309788 
     length 2.23224 
     axis 0 0 0  XYZ
  end
  begin
     id 2 
     name lfemur
     direction 0.34202 -0.939693 0  
     length 7.11402  
     axis 0 0 20  XYZ
    dof rx ry rz
    limits (-160.0 20.0)
           (-70.0 70.0)
           (-60.0 70.0)
  end
  begin
     id 3 
     name ltibia
     direction 0.34202 -0.939693 0   
     length 6.78496   
     axis 0 0 20   XYZ
    dof rx
    limits (-10.0 170.0)
  end
  begin
     id 4 
     name lfoot
     direction 0.125078 -0.343648 0.930732   
     length 1.84054   
     axis -90 7.62852e-016 20   XYZ
    dof rx rz
    limits (-45.0 90.0)
           (-70.0 20.0)
  end
  begin
     id 5 
     name ltoes
     direction 1.53565e-011 -4.21893e-011 1   
     length 0.916474   
     axis -90 7.62852e-016 20   XYZ
    dof rx
    limits (-90.0 20.0)
  end
  begin
     id 6 
     name rhipjoint
     direction -0.564688 -0.757748 0.327026   
     length 2.11457  
     axis 0 0 0  XYZ 
  end
  begin
     id 7 
     name rfemur
     direction -0.34202 -0.939693 0   
     length 7.14609   
     axis 0 0 -20   XYZ
    dof rx ry rz
    limits (-160.0 20.0)
           (-70.0 70.0)
           (-70.0 60.0)
  end
  begin
     id 8 
     name rtibia
     direction -0.34202 -0.939693 0   
     length 6.78101   
     axis 0 0 -20   XYZ
    dof rx
    limits (-10.0 170.0)
 end
 begin
     id 9 
     name rfoot
     direction -0.0992671 -0.272734 0.956955   
     length 1.96168  
     axis -90 -7.62852e-016 -20   XYZ
    dof rx rz
    limits (-45.0 90.0)
           (-20.0 70.0)
  end
  begin
     id 10 
     name rtoes
     direction -1.5356e-011 -4.21891e-011 1   
     length 0.982933   
     axis -90 -7.62852e-016 -20   XYZ
    dof rx
    limits (-90.0 20.0)
  end
  begin
     id 11 
     name lowerback
     direction -0.00596953 0.998668 0.0512524   
     length 1.87557   
     axis 0 0 0   XYZ
    dof rx ry rz
    limits (-20.0 45.0)
           (-30.0 30.0)
           (-30.0 30.0)
  end
  begin
     id 12 
     name upperback
     direction 0.00584879 0.999652 0.0257308   
     length 1.87883   
     axis 0 0 0   XYZ
    dof rx ry rz
    limits (-20.0 45.0)
           (-30.0 30.0)
           (-30.0 30.0)
  end
  begin
     id 13 
     name thorax
     direction 0.010104 0.999947 0.00178881   
     length 1.87779   
     axis 0 0 0   XYZ
    dof rx ry rz
    limits (-20.0 45.0)
           (-30.0 30.0)
           (-30.0 30.0)
  end
  begin
     id 14 
     name lowerneck
     direction 0.0120771 0.995934 -0.0892773   
     length 1.40897   
     axis 0 0 0   XYZ
    dof rx ry rz
    limits (-20.0 45.0)
           (-30.0 30.0)
           (-30.0 30.0)
  end
  begin
     id 15 
     name upperneck
     direction -0.030568 0.999465 -0.0116366   
     length 1.38661   
     axis 0 0 0   XYZ
    dof rx ry rz
    limits (-20.0 45.0)
           (-30.0 30.0)
           (-30.0 30.0)
  end
  begin
     id 16
     name head
     direction -0.0170715 0.999854 -0.00104426  
     length 1.47052  
     axis 0 0 0   XYZ
    dof rx ry rz
    limits (-20.0 45.0)
           (-30.0 30.0)
           (-30.0 30.0)
  end
  begin
     id 17 
     name lclavicle
     direction 0.977763 0.206143 0.038532  
     length 3.02424  
     axis 0 0 0   XYZ
    dof ry rz
    limits (-20.0 10.0)
           (0.0 20.0)
  end
  begin
     id 18 
     name lhumerus
     direction 1 -4.48965e-011 -2.62654e-027   
     length 4.68382   
     axis 180 -30 -90   XYZ
    dof rx ry rz
    limits (-60.0 90.0)
           (-90.0 90.0)
           (-90.0 90.0)
  end
  begin
     id 19
     name lradius
     direction 1 -4.48973e-011 -1.54954e-027   
     length 2.98124   
     axis 180 -30 -90   XYZ
    dof rx
    limits (-10.0 170.0)
  end
  begin
     id 20
     name lwrist
     direction 1 -4.48959e-011 7.20928e-028   
     length 1.49062   
     axis -5.52449e-016 90 90   XYZ
    dof ry
    limits (-180.0 0.0)
 end
  begin
     id 21 
     name lhand
     direction 1 -4.48971e-011 1.44186e-027   
     length 0.707595   
     axis -9.20027e-016 90 90   XYZ
    dof rx rz
    limits (-90.0 90.0)
           (-45.0 45.0)
  end
  begin
     id 22 
     name lfingers
     direction 1 -4.48985e-011 2.88371e-027   
     length 0.570481   
     axis -1.84005e-015 90 90   XYZ
    dof rx
    limits (0.0 90.0)
  end
  begin
     id 23
     name lthumb
     direction 0.707107 -6.34929e-011 0.707107   
     length 0.819101   
     axis -90 45 2.85299e-015   XYZ
    dof rx rz
    limits (-45.0 45.0)
           (-45.0 45.0)
  end
  begin
     id 24 
     name rclavicle
     direction -0.958661 0.284411 -0.00895327   
     length 3.11921  
     axis 0 0 0   XYZ 
    dof ry rz
    limits (-10.0 20.0)
           (-20.0 0.0)
  end
  begin
     id 25 
     name rhumerus
     direction -1 -4.48963e-011 -4.22193e-027  
     length 4.75876   
     axis 180 30 90   XYZ
    dof rx ry rz
    limits (-90.0 60.0)
           (-90.0 90.0)
           (-90.0 90.0)
  end
  begin
     id 26 
     name rradius
     direction -1 -4.48968e-011 -1.07616e-027   
     length 2.93293   
     axis 180 30 90   XYZ
    dof rx
    limits (-10.0 170.0)
  end
  begin
     id 27 
     name rwrist
     direction -1 -4.48965e-011 7.20928e-028   
     length 1.46647   
     axis -5.52449e-016 -90 -90   XYZ
    dof ry
    limits (-180.0 0.0)
  end
  begin
     id 28
     name rhand
     direction -1 -4.48971e-011 1.44186e-027   
     length 0.831748   
     axis -9.20027e-016 -90 -90   XYZ
    dof rx rz
    limits (-90.0 90.0)
           (-45.0 45.0)
  end
  begin
     id 29
     name rfingers
     direction -1 -4.48961e-011 2.88371e-027   
     length 0.670577   
     axis -1.84005e-015 -90 -90   XYZ
    dof rx
    limits (0.0 90.0)
  end
  begin
     id 30
     name rthumb
     direction -0.707107 -6.34929e-011 0.707107   
     length 0.962818   
     axis -90 -45 -2.85299e-015   XYZ
    dof rx rz
    limits (-45.0 45.0)
           (-45.0 45.0)
  end
:hierarchy
  begin
    root lhipjoint rhipjoint lowerback
    lhipjoint lfemur
    lfemur ltibia
    ltibia lfoot
    lfoot ltoes
    rhipjoint rfemur
    rfemur rtibia
    rtibia rfoot
    rfoot rtoes
    lowerback upperback
    upperback thorax
    thorax lowerneck lclavicle rclavicle
    lowerneck upperneck
    upperneck head
    lclavicle lhumerus
    lhumerus lradius
    lradius lwrist
    lwrist lhand lthumb
    lhand lfingers
    rclavicle rhumerus
    rhumerus rradius
    rradius rwrist
    rwrist rhand rthumb
    rhand rfingers
  end

#!OML:ASF E:\id_vita\Project 1\Capture day 1\Session 1\Female.ASF
:FULLY-SPECIFIED
:DEGREES
204
root 20.4154 14.2335 1.72988 -142.743 -78.428 177.9
lowerback 8.53119 3.85425 0.353639
upperback -6.97178 5.21834 0.212203
thorax -12.3476 2.43005 -0.951152
lowerneck 0.431594 0.909576 -4.31552
upperneck -22.5098 -0.251588 -2.11737
head -6.95647 0.066661 0.100125
rclavicle -1.98785e-014 1.82882e-014
rhumerus -6.12072 -24.7662 -14.2973
rradius 106.582
rwrist 5.08262
rhand -45.2091 22.62
rfingers 7.12502
rthumb -17.9849 -6.56841
lclavicle -1.98785e-014 1.82882e-014
lhumerus -21.8043 23.2327 9.38064
lradius 80.5371
lwrist 14.1631
lhand -37.655 39.0622
lfingers 7.12502
lthumb -10.7065 68.7694
rfemur -76.0423 -1.44484 20.3859
rtibia 79.4749
rfoot -20.9958 -11.5276
rtoes -25.8012
lfemur -77.5639 -7.77201 -17.8067
ltibia 85.9075
lfoot -18.0898 11.7636
ltoes -3.76777
205
root 20.5735 14.065 1.74416 -140.726 -78.7631 176.922
lowerback 8.5181 3.73955 0.4123
upperback -6.90948 5.07333 0.222921
thorax -12.2643 2.35905 -0.94085
lowerneck -0.333226 0.985411 -3.96963
upperneck -22.3993 -0.170835 -2.48991
head -6.78692 0.0872255 -0.0816608
rclavicle 2.54444e-014 7.15625e-015
rhumerus -4.62765 -23.3594 -18.0082
rradius 105.89
rwrist 3.14168
rhand -46.2961 21.7625
rfingers 7.12502
rthumb -19.0304 -7.32649
lclavicle 2.54444e-014 7.15625e-015
lhumerus -20.9169 21.4829 13.0163
lradius 81.646
lwrist 14.6446
lhand -38.4671 39.7826
lfingers 7.12502
lthumb -11.4897 69.4478
rfemur -78.3 -1.96882 20.593
rtibia 80.333
rfoot -22.3951 -12.0344
rtoes -26.4894
lfemur -80.4186 -7.91024 -17.2536
ltibia 87.2161
lfoot -17.9572 11.3004
ltoes -2.4621
206
root 20.7274 13.913 1.75894 -138.013 -79.1873 175.127
lowerback 8.74409 3.54682 0.421615
upperback -6.90601 4.82018 0.249933
thorax -12.4027 2.23634 -0.88508
lowerneck -0.496797 1.09709 -3.87439
upperneck -22.9738 -0.110164 -2.71793
head -6.94747 0.117078 -0.173707
rclavicle 4.57205e-014 -3.18055e-015
rhumerus -3.03517 -21.8195 -21.3448
rradius 105.566
rwrist 1.06837
rhand -47.788 20.5714
rfingers 7.12502
rthumb -20.4647 -8.37008
lclavicle 4.57205e-014 -3.18055e-015
lhumerus -20.0816 19.8291 16.3797
lradius 83.0404
lwrist 14.6347
lhand -39.2544 40.0466
lfingers 7.12502
lthumb -12.2489 69.6679
rfemur -80.3666 -2.72037 20.9673
rtibia 81.1252
rfoot -23.9495 -11.4408
rtoes -25.1693
lfemur -82.7259 -8.06321 -17.093
ltibia 88.1759
lfoot -18.7864 11.5843
ltoes -3.64687
207
root 20.8822 13.7838 1.77205 -134.721 -79.5947 172.568
lowerback 9.21772 3.31611 0.393247
upperback -6.82362 4.51296 0.259625
thorax -12.6044 2.09039 -0.828381
lowerneck -0.340376 1.25611 -4.14314
upperneck -24.1235 -0.023454 -2.698
head -7.35942 0.175113 -0.126442
rclavicle 7.95139e-015 5.40694e-014
rhumerus -1.17119 -20.4915 -24.4497
rradius 105.349
rwrist -0.844845
rhand -49.4176 20.1616
rfingers 7.12502
rthumb -22.03 -8.60368
lclavicle 7.95139e-015 5.40694e-014
lhumerus -19.2782 18.4717 19.4325
lradius 84.6109
lwrist 13.8379
lhand -39.6378 38.7921
lfingers 7.12502
lthumb -12.6186 68.3909
rfemur -82.156 -3.47413 21.3747
rtibia 81.7677
rfoot -24.6299 -13.3257
rtoes -25.4102
lfemur -84.483 -8.23786 -17.2238
ltibia 88.805
lfoot -20.4857 12.225
ltoes -11.4394
208
root 21.0424 13.648 1.78668 -131.627 -79.9439 170.191
lowerback 9.77345 3.09593 0.500903
upperback -6.67971 4.23642 0.215163
thorax -12.77 1.94594 -0.911442
lowerneck -0.22005 1.43359 -4.31083
upperneck -25.4431 0.0566795 -2.7608
head -7.8289 0.22536 -0.123223
rclavicle 1.51076e-014 7.95139e-016
rhumerus 0.946187 -19.606 -27.3688
rradius 105.192
rwrist -2.27211
rhand -50.6187 20.8845
rfingers 7.12502
rthumb -23.1828 -7.74039
lclavicle 1.51076e-014 7.95139e-016
lhumerus -18.2553 17.3523 22.1442
lradius 86.215
lwrist 12.4864
lhand -39.836 37.1911
lfingers 7.12502
lthumb -12.8097 66.7781
rfemur -84.0806 -3.91096 21.7672
rtibia 82.3528
rfoot -24.9885 -14.7899
rtoes -25.1871
lfemur -86.1507 -8.31931 -17.3249
ltibia 89.1876
lfoot -21.36 13.0128
ltoes -12.5415
209
root 21.2074 13.5201 1.80185 -129.337 -80.1639 168.68
lowerback 10.1437 2.92508 0.714649
upperback -6.38804 4.03949 0.146211
thorax -12.6412 1.83601 -1.07748
lowerneck -0.156558 1.60287 -4.36711
upperneck -27.0352 0.057806 -2.98393
head -8.39152 0.235166 -0.187889
rclavicle 1.82882e-014 7.15625e-015
rhumerus 3.27239 -19.1412 -29.9999
rradius 105.173
rwrist -3.0022
rhand -51.2187 22.5447
rfingers 7.12502
rthumb -23.7584 -6.00657
lclavicle 1.82882e-014 7.15625e-015
lhumerus -16.8902 16.5309 24.6034
lradius 87.7955
lwrist 10.7755
lhand -40.5992 37.2335
lfingers 7.12502
lthumb -13.5453 66.773
rfemur -86.1585 -4.08693 22.2726
rtibia 82.8362
rfoot -25.0793 -15.8613
rtoes -24.8891
lfemur -87.7725 -8.10639 -17.4273
ltibia 89.3561
lfoot -22.2224 13.742
ltoes -14.0058
210
root 21.3759 13.4125 1.81407 -127.949 -80.0808 168.02
lowerback 10.6241 2.86604 0.726379
upperback -6.0481 3.96474 0.077404
thorax -12.5388 1.80176 -1.16046
lowerneck 0.0220282 1.72219 -4.36756
upperneck -28.7425 -0.0822901 -3.37267
head -9.0314 0.187126 -0.311339
rclavicle -2.46493e-014 4.21423e-014
rhumerus 5.74736 -18.7801 -32.346
rradius 105.265
rwrist -2.89184
rhand -51.1322 24.7959
rfingers 7.12502
rthumb -23.6754 -3.76617
lclavicle -2.46493e-014 4.21423e-014
lhumerus -15.3243 15.718 26.8146
lradius 89.3208
lwrist 8.84911
lhand -41.4413 37.3136
lfingers 7.12502
lthumb -14.3569 66.7972
rfemur -88.1166 -3.83504 22.5223
rtibia 83.2134
rfoot -24.7229 -16.8255
rtoes -24.7742
lfemur -89.1832 -7.61616 -17.7177
ltibia 89.3571
lfoot -23.1704 14.4154
ltoes -15.1093
211
root 21.5505 13.3365 1.82059 -128.351 -79.7261 168.938
lowerback 11.5801 2.92167 0.576254
upperback -5.69076 4.02416 0.0108847
thorax -12.717 1.83868 -1.20709
lowerneck -0.226784 1.77408 -3.96353
upperneck -29.8957 -0.326216 -4.12878
head -9.40475 0.0722916 -0.624404
rclavicle -4.45278e-014 -4.29375e-014
rhumerus 8.31367 -18.229 -34.3562
rradius 105.229
rwrist -1.92138
rhand -50.9028 27.4965
rfingers 7.12502
rthumb -23.4554 -1.0938
lclavicle -4.45278e-014 -4.29375e-014
lhumerus -13.7488 14.7425 28.5313
lradius 90.9315
lwrist 7.06858
lhand -41.9336 36.8694
lfingers 7.12502
lthumb -14.8312 66.3186
rfemur -89.6973 -3.01484 22.4131
rtibia 83.4228
rfoot -24.0763 -17.4942
rtoes -24.3411
lfemur -90.222 -6.85011 -17.9839
ltibia 89.1555
lfoot -24.3214 14.945
ltoes -14.404
212
root 21.7279 13.276 1.82286 -130.912 -79.316 172.001
lowerback 12.5495 3.03774 0.57969
upperback -5.25554 4.18986 -0.0262249
thorax -12.8011 1.91496 -1.33081
lowerneck -0.678305 1.88729 -3.31642
upperneck -30.8793 -0.486891 -5.00983
head -9.68387 -0.0261628 -1.03437
rclavicle 4.05521e-014 -1.11319e-014
rhumerus 10.8716 -17.4848 -35.8629
rradius 104.96
rwrist -0.166828
rhand -50.8716 29.7557
rfingers 7.12502
rthumb -23.4254 1.16152
lclavicle 4.05521e-014 -1.11319e-014
lhumerus -12.1181 13.8128 29.651
lradius 92.6428
lwrist 5.55922
lhand -42.7067 37.4464
lfingers 7.12502
lthumb -15.5759 66.8392
rfemur -91.1338 -1.58361 22.0463
rtibia 83.5079
rfoot -23.3203 -17.7539
rtoes -23.6236
lfemur -91.1511 -5.95781 -17.7182
ltibia 88.8998
lfoot -25.4142 15.6525
ltoes -13.6583
